<svg viewBox="0 0 1211 874" width="1211" height="874" version="1.1" baseProfile="full" xmlns="http://www.w3.org/2000/svg"><style id="easydrawer-style-sheet">path{stroke-linecap:round;stroke-linejoin:round;}text{white-space:pre;}</style><path d="M259,40q-46-2 -91-2q-28.2,0 -62,29q-28.6,24.5 -15,62q5.9,16.2 92,24q39.5,3.6 51-31q14.6-43.7 -48-66q-22.7-8.1 -74,13q-10,4.1 -7,13q9.2,3.2 19,3q12.6-.2 19,3" fill="none" stroke="#000000" stroke-width=".8"></path><path d="M1069,696q-11,18 -15,31q-12.7,33.7 -24,61q-6.2,15.1 -8,56q-.3,6.7 31,13q16.3,3.3 67-49q21.9-21.6 40-39q6-5.8 6-17q0-1 -11-1q-4,0 -20,18q-4.5,5 -1,12q.7,1.5 8-2q1.3-.6 1-7" fill="none" stroke="#000000" stroke-width=".8"></path><path d="M927,43q-5.5,2.2 -10,4q-7.4,2.9 -27,54q-6.5,16.9 0,43q2.2,9 30,5q21-3 21-47q0-4 -7-11" fill="none" stroke="#000000" stroke-width=".8"></path><path d="M195,658q-6.4-.2 -32-1q-10.6-.3 -38,19q-23.3,16.4 -6,93q6.4,28.4 28,37q6.5,2.6 18-6q33.3-25 45-39q26.8-32.2 16-43q-9.5-9.5 -39,15q-1.2,1 -5,6q1.5-1.3 4-4" fill="none" stroke="#000000" stroke-width=".8"></path></svg>
